HIERARCHY
ROOT pelvis
{
  OFFSET 0 100 0
  CHANNELS 6 Xposition Yposition Zposition Zrotation Xrotation Yrotation
  JOINT pelvis_right_femur
  {
    OFFSET -10.78128 -3.44521 -0.5502486
    CHANNELS 3 Zrotation Xrotation Yrotation
    JOINT right_femur_tibia
    {
      OFFSET -0.8047443 -44.0398 -0.1307829
      CHANNELS 3 Zrotation Xrotation Yrotation
      JOINT right_tibia_foot
      {
        OFFSET 3.006224 -47.83518 -5
        CHANNELS 3 Zrotation Xrotation Yrotation
        End Site
        {
          OFFSET 0 -5 15
        }
      }
    }
  }
  JOINT pelvis_left_femur
  {
    OFFSET 10.78128 -3.44521 -0.5502486
    CHANNELS 3 Zrotation Xrotation Yrotation
    JOINT left_femur_tibia
    {
      OFFSET 0.8047443 -44.0398 -0.1307829
      CHANNELS 3 Zrotation Xrotation Yrotation
      JOINT left_tibia_foot
      {
        OFFSET -4.370144 -48.10324 -4.275266
        CHANNELS 3 Zrotation Xrotation Yrotation
        End Site
        {
          OFFSET 0 -5 15
        }
      }
    }
  }
  JOINT pelvis_spine1
  {
    OFFSET 0 6.468898 -3.129235
    CHANNELS 3 Zrotation Xrotation Yrotation
    JOINT spine1
    {
      OFFSET 0 23.15396 4.99043
      CHANNELS 3 Zrotation Xrotation Yrotation
      JOINT spine2
      {
        OFFSET 0 20.79997 -5.064912
        CHANNELS 3 Zrotation Xrotation Yrotation
        JOINT neck
        {
          OFFSET 0 14.38658 9.616178
          CHANNELS 3 Zrotation Xrotation Yrotation
          End Site
          {
            OFFSET 0 20 0
          }
        }
      }
      JOINT right_manubrium
      {
        OFFSET -5.722621 16.35077 3.967754
        CHANNELS 3 Zrotation Xrotation Yrotation
        JOINT right_clavicle
        {
          OFFSET -13.16364 1.694482 -4.693211
          CHANNELS 3 Zrotation Xrotation Yrotation
          JOINT right_humerus
          {
            OFFSET -28.5034 -0.3100689 -2.792744
            CHANNELS 3 Zrotation Xrotation Yrotation
            JOINT right_radius
            {
              OFFSET -25.15693 0.02248979 -1.271978
              CHANNELS 3 Zrotation Xrotation Yrotation
              End Site
              {
                OFFSET -15 0 0
              }
            }
          }
        }
      }
      JOINT left_manubrium
      {
        OFFSET 5.722621 16.35077 3.967754
        CHANNELS 3 Zrotation Xrotation Yrotation
        JOINT left_clavicle
        {
          OFFSET 13.16364 1.694482 -4.693211
          CHANNELS 3 Zrotation Xrotation Yrotation
          JOINT left_humerus
          {
            OFFSET 29.39168 -1.063119 -2.237045
            CHANNELS 3 Zrotation Xrotation Yrotation
            JOINT left_radius
            {
              OFFSET 24.59957 -0.9528479 0.9047498
              CHANNELS 3 Zrotation Xrotation Yrotation
              End Site
              {
                OFFSET 15 -0 -0
              }
            }
          }
        }
      }
    }
  }
}
MOTION
Frames: 23
Frame Time: 0.0416666666667
-720.8297 108.9815 2796.114 -5.56624 -6.105157 -42.24786 6.46345 4.687687 1.757676 -0 10.17529 -0 -9.086187 -9.00313 -2.35867 0.1849267 -13.82404 -4.154309 -0 47.34665 -0 -1.180463 -4.377309 17.11067 -0.9224424 -1.810131 5.914839 -0.1613497 14.39664 -6.686901 -0.1769245 21.5443 5.756932 6.560977 -16.90975 2.477184 1.991068 -22.18142 12.56959 88.33035 26.43577 -17.19325 -0 0 18.00654 -21.64415 8.210762 6.080719 6.855476 -26.60602 -9.269445 -89.16475 6.346797 20.19416 0 0 -12.59834 18.00421 12.94678 -12.98176
-724.1806 108.6771 2800.301 -5.259395 -5.690793 -43.06075 5.969969 8.874826 1.572882 -0 8.617973 -0 -8.276397 -12.25427 -1.831878 1.316612 -19.02323 -3.336967 -0 38.34693 -0 -0.7876476 -4.492339 17.71385 -0.7112367 -2.007417 6.241669 -0.02676639 14.76722 -6.872142 -0.2183979 21.26012 5.279652 6.129876 -17.04271 2.214613 1.609791 -23.31075 12.6598 88.54701 25.66668 -16.88238 -0 0 19.21638 -21.3234 8.295972 6.484979 6.269379 -26.50198 -9.355202 -89.73265 6.522895 22.40741 0 0 -11.72266 16.96082 12.91915 -11.36247
-727.5362 107.8663 2804.704 -4.816712 -5.159695 -43.76373 5.240088 12.63311 1.42066 -0 8.060234 -0 -7.42905 -14.62267 -1.317316 2.103575 -22.50369 -2.983958 -0 28.78754 -0 -0.7481938 -4.69143 18.12339 -0.5164289 -2.174867 6.57708 0.0656245 15.07151 -6.978076 -0.233692 21.00417 4.819973 5.702328 -17.11278 1.997596 1.261092 -24.39151 12.72333 88.61322 25.01593 -16.35362 -0 0 20.49915 -21.06382 8.494391 6.940255 5.695558 -26.27419 -9.380761 -90.35112 6.712616 24.61042 0 0 -10.71382 15.90391 12.94252 -9.742551
-731.0011 106.7508 2809.39 -4.3866 -4.733825 -44.35458 4.3339 15.8602 1.366903 -0 9.064209 -0 -6.674859 -15.57927 -0.8520729 2.319058 -24.15541 -3.242349 -0 20.53149 -0 -1.095071 -4.90272 18.44611 -0.3575248 -2.299526 6.904 0.1076968 15.28903 -6.993377 -0.2279699 20.79613 4.411497 5.321701 -17.11698 1.827821 0.9835621 -25.35587 12.75831 88.50309 24.53709 -15.63219 -0 0 21.78868 -20.87241 8.751024 7.405632 5.18009 -25.93492 -9.34028 -91.00398 6.900179 26.68365 0 0 -9.571167 14.90727 13.00379 -8.240674
-734.6457 105.5919 2814.38 -4.13542 -4.611466 -44.84573 3.388598 18.41237 1.333915 -0 11.93596 -0 -6.243777 -14.62142 -0.435001 1.897556 -24.10657 -4.048993 -0 14.8728 -0 -1.582203 -5.10998 18.81574 -0.2507116 -2.372586 7.198014 0.1008911 15.40866 -6.921398 -0.2087069 20.65461 4.086074 5.024776 -17.07139 1.706539 0.8022033 -26.13872 12.76535 88.22787 24.25403 -14.78568 -0 0 22.98219 -20.74747 8.991935 7.838857 4.764771 -25.51815 -9.237347 -91.65848 7.080823 28.49331 0 0 -8.335129 14.0442 13.08502 -6.965486
-738.4979 104.6711 2819.655 -4.155791 -4.871412 -45.24386 2.53236 20.12326 1.197595 -0 16.7333 -0 -6.327635 -11.55304 -0.02223784 0.9257772 -22.63112 -5.221762 -0 12.26925 -0 -1.93326 -5.338627 19.28371 -0.2048257 -2.392359 7.439251 0.05478223 15.43234 -6.777622 -0.1847522 20.5888 3.862837 4.833743 -17.0006 1.629343 0.7277848 -26.7021 12.74831 87.8183 24.16444 -13.891 -0 0 23.99117 -20.67544 9.148258 8.206474 4.474859 -25.06511 -9.082879 -92.28245 7.253245 29.94743 0 0 -7.05315 13.36971 13.16666 -5.991871
-742.5317 104.2432 2825.153 -4.424097 -5.452557 -45.53405 1.810165 20.7783 0.8967551 -0 23.29139 -0 -6.956949 -6.645087 0.4566613 -0.4380807 -20.04583 -6.5834 -0 12.3949 -0 -2.028671 -5.664566 19.78054 -0.2219198 -2.361696 7.61459 -0.01816276 15.36892 -6.581117 -0.1630593 20.59988 3.748741 4.755354 -16.92862 1.591265 0.7590632 -27.03232 12.71154 87.31007 24.25222 -13.01146 -0 0 24.75457 -20.63958 9.175028 8.489774 4.319182 -24.61077 -8.888979 -92.84901 7.419263 30.99801 0 0 -5.76972 12.91572 13.23371 -5.357436
-746.6574 104.4794 2830.765 -4.819069 -6.195143 -45.67128 1.180808 20.08652 0.4644636 -0 31.17655 -0 -7.98781 -0.6186035 1.039777 -2.016447 -16.65729 -8.004893 -0 14.38487 -0 -1.91973 -6.216878 20.14553 -0.2990266 -2.284868 7.712655 -0.1057758 15.22826 -6.350313 -0.1462923 20.68547 3.74473 4.783826 -16.87644 1.594218 0.8835501 -27.12387 12.65753 86.74572 24.49454 -12.2006 -0 0 25.2199 -20.6308 9.057952 8.683794 4.296661 -24.18327 -8.666709 -93.32658 7.584811 31.60799 0 0 -4.54759 12.69877 13.27825 -5.075405
-750.7277 105.403 2836.329 -5.169868 -6.897861 -45.58467 0.5707455 17.71345 -0.01057728 -0 39.52636 -0 -9.128472 5.434307 1.642827 -3.611537 -12.76433 -9.373213 -0 17.04172 -0 -1.736941 -7.158638 20.19078 -0.4283595 -2.166918 7.720161 -0.1969901 15.02076 -6.104011 -0.1324673 20.84105 3.848915 4.903562 -16.86021 1.648834 1.077257 -26.97051 12.58686 86.18266 24.86227 -11.51583 -0 0 25.32874 -20.65369 8.815445 8.792986 4.400466 -23.8105 -8.42895 -93.66833 7.756792 31.72755 0 0 -3.490283 12.72729 13.29965 -5.146561
-754.5747 106.838 2841.67 -5.323221 -7.379808 -45.20492 -0.05004577 13.43478 -0.4576684 -0 46.88196 -0 -9.979806 10.2199 2.006487 -4.994698 -8.661072 -10.54473 -0 19.02633 -0 -1.574349 -8.625386 19.79179 -0.596855 -2.01472 7.623952 -0.2828518 14.75954 -5.8628 -0.1163761 21.0585 4.055291 5.092839 -16.88514 1.768786 1.307967 -26.568 12.49979 85.69212 25.32071 -11.02261 -0 0 25.02638 -20.72528 8.49741 8.824649 4.618941 -23.52409 -8.194454 -93.81367 7.935636 31.29854 0 0 -2.739272 13.0023 13.30542 -5.56356
-758.0788 108.4199 2846.646 -5.227617 -7.556054 -44.51618 -0.612364 7.396567 -0.9007214 -0 51.31576 -0 -10.22344 12.68633 1.824048 -5.941667 -4.584144 -11.33735 -0 19.26625 -0 -1.394529 -10.62234 18.99594 -0.788103 -1.837328 7.41723 -0.3589167 14.46002 -5.646572 -0.0922659 21.32514 4.35251 5.33135 -16.93856 1.961246 1.546104 -25.92071 12.39826 85.33995 25.83771 -10.78208 -0 0 24.28889 -20.86601 8.173382 8.779959 4.93787 -23.35553 -7.98757 -93.70571 8.108092 30.27839 0 0 -2.43777 13.51605 13.31121 -6.313717
-761.2362 109.7105 2851.204 -4.966222 -7.475116 -43.59776 -0.9790914 0.2720705 -1.468923 -0 51.14854 -0 -9.944579 12.65732 1.067707 -6.331386 -0.6389038 -11.60124 -0 17.53638 -0 -1.046501 -12.96169 18.05417 -0.9878183 -1.643653 7.104746 -0.427847 14.13386 -5.467096 -0.05598575 21.62642 4.727218 5.608976 -16.99022 2.222281 1.779335 -25.04189 12.286 85.15603 26.39899 -10.82599 -0 0 23.14369 -21.08841 7.911199 8.64866 5.346112 -23.3237 -7.829908 -93.31542 8.2472 28.66054 0 0 -2.679328 14.25464 13.33744 -7.385033
-764.1714 110.3728 2855.401 -4.657011 -7.229728 -42.60255 -1.063295 -6.966478 -2.283814 -0 45.97473 -0 -9.60101 11.02174 0.09749454 -6.232454 3.16582 -11.34215 -0 14.61096 -0 -0.4721601 -15.34521 17.25637 -1.188504 -1.438817 6.702815 -0.4999455 13.78159 -5.320502 -0.004268998 21.95038 5.169203 5.926589 -17.00172 2.542932 2.017107 -23.94804 12.16628 85.11683 27.01644 -11.13503 -0 0 21.66557 -21.39534 7.764615 8.416753 5.838553 -23.42115 -7.728834 -92.65428 8.321758 26.47759 0 0 -3.480082 15.19993 13.40387 -8.765692
-767.0804 110.2828 2859.387 -4.322081 -6.818206 -41.68021 -0.8938912 -13.52578 -3.29848 -0 37.06724 -0 -9.49659 9.038799 -0.6814359 -5.861493 6.774594 -10.75684 -0 11.66 -0 0.1038396 -17.52376 16.69103 -1.386892 -1.224684 6.237308 -0.5895113 13.39569 -5.189211 0.06723496 22.28736 5.668804 6.284248 -16.93864 2.916439 2.276346 -22.6646 12.04053 85.16229 27.71136 -11.64088 -0 0 19.96244 -21.78602 7.778227 8.08377 6.408015 -23.61264 -7.675463 -91.7704 8.307677 23.8066 0 0 -4.79109 16.31865 13.52529 -10.42121
-770.1518 109.5175 2863.345 -3.914604 -6.170309 -40.92071 -0.5390318 -18.9978 -4.26379 -0 26.71166 -0 -9.515271 7.47778 -1.136181 -5.437128 10.03875 -10.1012 -0 9.610299 -0 0.3225327 -19.32808 16.2285 -1.575664 -1.007303 5.745272 -0.7061566 12.97852 -5.057045 0.1614985 22.62182 6.204386 6.6666 -16.78311 3.331519 2.559667 -21.25311 11.91193 85.23598 28.47639 -12.25623 -0 0 18.17423 -22.25206 7.983971 7.672937 7.029375 -23.85214 -7.656365 -90.74333 8.193133 20.80302 0 0 -6.517141 17.5419 13.70492 -12.25773
-773.5171 108.2809 2867.437 -3.44659 -5.305697 -40.356 -0.00520725 -23.18782 -4.870803 -0 17.15 -0 -9.41333 6.485079 -1.386947 -5.080614 12.81436 -9.534215 -0 9.083211 -0 0.03120377 -20.56593 15.71956 -1.739369 -0.804271 5.275619 -0.8446517 12.56121 -4.92713 0.2725238 22.92535 6.733163 7.040424 -16.54834 3.756438 2.845342 -19.83492 11.79126 85.31806 29.24669 -12.91407 -0 0 16.47017 -22.76004 8.368352 7.225026 7.651753 -24.10759 -7.666948 -89.68195 7.981466 17.73314 0 0 -8.510735 18.7585 13.92249 -14.1087
-777.2423 106.8369 2871.769 -3.03282 -4.398482 -39.98766 0.7569003 -25.92725 -4.924166 -0 9.921703 -0 -9.146038 5.938924 -1.621286 -4.818806 15.02211 -9.08273 -0 10.55314 -0 -0.5896682 -20.98648 15.14444 -1.859953 -0.6423654 4.879858 -0.9819442 12.2025 -4.825875 0.3811414 23.16189 7.198266 7.366958 -16.28427 4.135707 3.095734 -18.575 11.69709 85.42905 29.91103 -13.58708 -0 0 15.01743 -23.24318 8.843235 6.782801 8.209332 -24.37322 -7.713068 -88.70914 7.69628 14.94203 0 0 -10.56327 19.83823 14.13002 -15.77028
-781.3384 105.4669 2876.384 -2.827846 -3.695533 -39.80963 1.771004 -27.05667 -4.41478 -0 5.702172 -0 -8.889174 5.694956 -1.954962 -4.626692 16.59563 -8.697967 -0 14.33831 -0 -1.183889 -20.37754 14.60501 -1.925636 -0.5463108 4.596748 -1.086266 11.96509 -4.788504 0.4613494 23.30155 7.547338 7.616798 -16.05958 4.408156 3.27537 -17.6288 11.64816 85.60464 30.3591 -14.27207 -0 0 13.93792 -23.61953 9.270477 6.379342 8.642604 -24.65956 -7.801965 -87.93002 7.379094 12.75543 0 0 -12.4336 20.67181 14.26881 -17.066
-785.7707 104.4398 2881.261 -2.938723 -3.39025 -39.82152 2.974541 -26.4952 -3.483785 -0 4.419972 -0 -8.862597 5.608543 -2.395654 -4.458978 17.39468 -8.323981 -0 20.47087 -0 -1.475814 -18.6866 14.22328 -1.934645 -0.5288051 4.443662 -1.13199 11.88906 -4.83933 0.4924601 23.33061 7.748089 7.776451 -15.92853 4.530813 3.36566 -17.09259 11.655 85.86257 30.52908 -14.95848 -0 0 13.28985 -23.82507 9.530131 6.035683 8.914644 -24.97377 -7.934207 -87.40513 7.071836 11.38449 0 0 -13.91176 21.20148 14.29673 -17.89851
-790.4573 103.9742 2886.319 -3.372939 -3.54037 -40.03188 4.223315 -24.29611 -2.333029 -0 5.472672 -0 -9.162605 5.476284 -2.868348 -4.263326 17.15594 -7.936909 -0 28.57112 -0 -1.435421 -16.07777 14.05688 -1.892559 -0.5887517 4.419336 -1.10896 11.98156 -4.982327 0.4667424 23.25128 7.792191 7.845932 -15.90943 4.489985 3.368142 -16.98898 11.7175 86.18856 30.42182 -15.61404 -0 0 13.07958 -23.83512 9.571556 5.763764 9.014744 -25.30911 -8.103229 -87.14698 6.798378 10.89378 0 0 -14.87352 21.4246 14.2031 -18.25844
-795.2673 104.185 2891.413 -4.035136 -4.057067 -40.4484 5.342108 -20.66691 -1.144845 -0 7.923413 -0 -9.700622 5.003181 -3.261742 -3.984085 15.51768 -7.542924 -0 37.75602 -0 -1.261903 -12.92387 14.10073 -1.807168 -0.7159884 4.51139 -1.021636 12.22406 -5.205041 0.3890238 23.076 7.689046 7.831521 -15.98806 4.297613 3.295957 -17.28493 11.82775 86.54955 30.07954 -16.19652 -0 0 13.28095 -23.66236 9.414768 5.570244 8.951226 -25.64792 -8.299457 -87.13431 6.563788 11.23139 0 0 -15.29471 21.37193 14.00596 -18.19117
-800.0328 105.0249 2896.366 -4.760814 -4.749519 -41.0612 6.18298 -15.97133 -0.05001485 -0 10.65734 -0 -10.24177 3.842105 -3.477568 -3.566896 12.14535 -7.141713 -0 46.59998 -0 -1.21804 -9.751563 14.34353 -1.684964 -0.8961135 4.700521 -0.8831808 12.5837 -5.486592 0.2730152 22.82365 7.457754 7.738378 -16.13489 3.984404 3.161239 -17.91607 11.97298 86.91706 29.55494 -16.67215 -0 0 13.84213 -23.34359 9.123887 5.460848 8.741557 -25.96849 -8.512806 -87.32657 6.369834 12.27345 0 0 -15.23522 21.08037 13.74312 -17.75284
-804.5883 106.2596 2901.028 -5.376883 -5.40165 -41.83358 6.673132 -10.70039 0.8569323 -0 12.59745 -0 -10.51662 1.728534 -3.469577 -2.965963 6.963315 -6.682261 -0 53.27917 -0 -1.407189 -7.115121 14.79782 -1.531028 -1.111828 4.960248 -0.7110268 13.019 -5.80138 0.1386983 22.51967 7.123724 7.567091 -16.31987 3.597073 2.967396 -18.79855 12.1363 87.27982 28.89465 -17.02211 -0 0 14.68044 -22.93071 8.78312 5.444716 8.407189 -26.24751 -8.731239 -87.67088 6.230446 13.84897 0 0 -14.81504 20.57948 13.46482 -16.98695
